<mxfile host="65bd71144e">
    <diagram id="MpD38rZVBoh9cF0qGzSl" name="Page-1">
        <mxGraphModel dx="1378" dy="613" grid="1" gridSize="10" guides="1" tooltips="1" connect="1" arrows="1" fold="1" page="1" pageScale="1" pageWidth="827" pageHeight="1169" math="0" shadow="0">
            <root>
                <mxCell id="0"/>
                <mxCell id="1" parent="0"/>
                <mxCell id="8" style="edgeStyle=none;html=1;exitX=0.5;exitY=1;exitDx=0;exitDy=0;entryX=0;entryY=0.5;entryDx=0;entryDy=0;" edge="1" parent="1" source="2" target="4">
                    <mxGeometry relative="1" as="geometry">
                        <Array as="points">
                            <mxPoint x="160" y="295"/>
                        </Array>
                    </mxGeometry>
                </mxCell>
                <mxCell id="11" style="edgeStyle=none;html=1;exitX=1;exitY=0.75;exitDx=0;exitDy=0;entryX=0.75;entryY=0;entryDx=0;entryDy=0;" edge="1" parent="1" source="2" target="5">
                    <mxGeometry relative="1" as="geometry">
                        <Array as="points">
                            <mxPoint x="510" y="233"/>
                        </Array>
                    </mxGeometry>
                </mxCell>
                <mxCell id="12" style="edgeStyle=none;html=1;exitX=1;exitY=0.25;exitDx=0;exitDy=0;entryX=0.5;entryY=0;entryDx=0;entryDy=0;" edge="1" parent="1" source="2" target="7">
                    <mxGeometry relative="1" as="geometry">
                        <Array as="points">
                            <mxPoint x="610" y="218"/>
                        </Array>
                    </mxGeometry>
                </mxCell>
                <mxCell id="2" value="资产所有者" style="rounded=0;whiteSpace=wrap;html=1;" vertex="1" parent="1">
                    <mxGeometry x="100" y="210" width="120" height="30" as="geometry"/>
                </mxCell>
                <mxCell id="22" style="edgeStyle=none;html=1;exitX=1;exitY=0.25;exitDx=0;exitDy=0;entryX=0.25;entryY=1;entryDx=0;entryDy=0;" edge="1" parent="1" source="3" target="6">
                    <mxGeometry relative="1" as="geometry">
                        <Array as="points">
                            <mxPoint x="330" y="498"/>
                        </Array>
                    </mxGeometry>
                </mxCell>
                <mxCell id="24" style="edgeStyle=none;html=1;exitX=1;exitY=0.75;exitDx=0;exitDy=0;entryX=0.5;entryY=1;entryDx=0;entryDy=0;" edge="1" parent="1" source="3" target="7">
                    <mxGeometry relative="1" as="geometry">
                        <Array as="points">
                            <mxPoint x="610" y="513"/>
                        </Array>
                    </mxGeometry>
                </mxCell>
                <mxCell id="3" value="威胁主体" style="rounded=0;whiteSpace=wrap;html=1;" vertex="1" parent="1">
                    <mxGeometry x="100" y="490" width="120" height="30" as="geometry"/>
                </mxCell>
                <mxCell id="4" value="对策" style="rounded=0;whiteSpace=wrap;html=1;" vertex="1" parent="1">
                    <mxGeometry x="300" y="280" width="120" height="30" as="geometry"/>
                </mxCell>
                <mxCell id="20" style="edgeStyle=none;html=1;entryX=0;entryY=0.25;entryDx=0;entryDy=0;exitX=0.75;exitY=1;exitDx=0;exitDy=0;" edge="1" parent="1" source="5" target="7">
                    <mxGeometry relative="1" as="geometry">
                        <Array as="points">
                            <mxPoint x="510" y="428"/>
                        </Array>
                    </mxGeometry>
                </mxCell>
                <mxCell id="5" value="风险" style="rounded=0;whiteSpace=wrap;html=1;" vertex="1" parent="1">
                    <mxGeometry x="420" y="350" width="120" height="30" as="geometry"/>
                </mxCell>
                <mxCell id="18" style="edgeStyle=none;html=1;exitX=1;exitY=0.25;exitDx=0;exitDy=0;entryX=0.308;entryY=0.967;entryDx=0;entryDy=0;entryPerimeter=0;" edge="1" parent="1" source="6" target="5">
                    <mxGeometry relative="1" as="geometry">
                        <Array as="points">
                            <mxPoint x="457" y="428"/>
                        </Array>
                    </mxGeometry>
                </mxCell>
                <mxCell id="27" style="edgeStyle=none;html=1;exitX=1;exitY=0.75;exitDx=0;exitDy=0;entryX=0;entryY=0.75;entryDx=0;entryDy=0;" edge="1" parent="1" source="6" target="7">
                    <mxGeometry relative="1" as="geometry"/>
                </mxCell>
                <mxCell id="6" value="威胁" style="rounded=0;whiteSpace=wrap;html=1;" vertex="1" parent="1">
                    <mxGeometry x="300" y="420" width="120" height="30" as="geometry"/>
                </mxCell>
                <mxCell id="7" value="资产" style="rounded=0;whiteSpace=wrap;html=1;" vertex="1" parent="1">
                    <mxGeometry x="550" y="420" width="120" height="30" as="geometry"/>
                </mxCell>
                <mxCell id="9" value="利用" style="text;html=1;strokeColor=none;fillColor=none;align=center;verticalAlign=middle;whiteSpace=wrap;rounded=0;" vertex="1" parent="1">
                    <mxGeometry x="110" y="240" width="60" height="30" as="geometry"/>
                </mxCell>
                <mxCell id="10" value="希望最小化" style="text;html=1;strokeColor=none;fillColor=none;align=center;verticalAlign=middle;whiteSpace=wrap;rounded=0;" vertex="1" parent="1">
                    <mxGeometry x="315" y="230" width="90" height="30" as="geometry"/>
                </mxCell>
                <mxCell id="13" value="价值" style="text;html=1;strokeColor=none;fillColor=none;align=center;verticalAlign=middle;whiteSpace=wrap;rounded=0;" vertex="1" parent="1">
                    <mxGeometry x="580" y="220" width="30" height="30" as="geometry"/>
                </mxCell>
                <mxCell id="17" style="edgeStyle=none;html=1;exitX=1;exitY=0;exitDx=0;exitDy=0;entryX=0;entryY=0.5;entryDx=0;entryDy=0;" edge="1" parent="1" source="14" target="5">
                    <mxGeometry relative="1" as="geometry">
                        <Array as="points">
                            <mxPoint x="360" y="365"/>
                        </Array>
                    </mxGeometry>
                </mxCell>
                <mxCell id="14" value="减少" style="text;html=1;strokeColor=none;fillColor=none;align=center;verticalAlign=middle;whiteSpace=wrap;rounded=0;" vertex="1" parent="1">
                    <mxGeometry x="330" y="310" width="30" height="30" as="geometry"/>
                </mxCell>
                <mxCell id="19" value="增加" style="text;html=1;strokeColor=none;fillColor=none;align=center;verticalAlign=middle;whiteSpace=wrap;rounded=0;" vertex="1" parent="1">
                    <mxGeometry x="420" y="400" width="30" height="30" as="geometry"/>
                </mxCell>
                <mxCell id="21" value="针对" style="text;html=1;strokeColor=none;fillColor=none;align=center;verticalAlign=middle;whiteSpace=wrap;rounded=0;" vertex="1" parent="1">
                    <mxGeometry x="510" y="400" width="30" height="30" as="geometry"/>
                </mxCell>
                <mxCell id="23" value="引起" style="text;html=1;strokeColor=none;fillColor=none;align=center;verticalAlign=middle;whiteSpace=wrap;rounded=0;" vertex="1" parent="1">
                    <mxGeometry x="285" y="470" width="30" height="30" as="geometry"/>
                </mxCell>
                <mxCell id="25" value="希望非法使用和/或进行破坏" style="text;html=1;strokeColor=none;fillColor=none;align=center;verticalAlign=middle;whiteSpace=wrap;rounded=0;" vertex="1" parent="1">
                    <mxGeometry x="300" y="490" width="240" height="30" as="geometry"/>
                </mxCell>
                <mxCell id="28" value="针对" style="text;html=1;strokeColor=none;fillColor=none;align=center;verticalAlign=middle;whiteSpace=wrap;rounded=0;" vertex="1" parent="1">
                    <mxGeometry x="470" y="440" width="30" height="30" as="geometry"/>
                </mxCell>
            </root>
        </mxGraphModel>
    </diagram>
</mxfile>